<?xml version="1.0" encoding="UTF-8"?>
<svg width="360px" height="169px" viewBox="0 0 360 169" version="1.1" xmlns="http://www.w3.org/2000/svg" xmlns:xlink="http://www.w3.org/1999/xlink">
    <!-- Generator: Sketch 52.2 (67145) - http://www.bohemiancoding.com/sketch -->
    <title>SVG</title>
    <desc>Created with Sketch.</desc>
        <g id="Welcome-screen" transform="translate(0.000000, -87.000000)">
            <g id="SVG" transform="translate(0.000000, 87.000000)">
                <circle id="Oval" fill="#FFF5DF" fill-rule="nonzero" cx="161.479839" cy="97.125" r="51.1733871"></circle>
                <path d="M202.050102,69.6574066 C203.17059,53.5383667 203.730825,45.1558556 203.730809,44.5098731 C203.730784,43.5408994 202.977996,42.7553716 202.04941,42.7553477 C201.120824,42.7553238 200.368076,43.5408128 200.368101,44.5097865 C200.368118,45.155769 200.928785,53.538309 202.050102,69.6574066 Z" id="Oval" fill="#FFD381" fill-rule="nonzero" transform="translate(202.049455, 56.206377) rotate(37.000000) translate(-202.049455, -56.206377) "></path>
                <circle id="Oval" fill="#FFD381" fill-rule="nonzero" cx="169.834677" cy="55.3508065" r="2.08870968"></circle>
                <circle id="Oval" fill="#FFD381" fill-rule="nonzero" cx="122.316532" cy="9.92137097" r="1.56653226"></circle>
                <circle id="Oval" fill="#FFD381" fill-rule="nonzero" cx="205.864919" cy="8.87701613" r="1.56653226"></circle>
                <path d="M121.345832,76.3829458 C122.467171,60.2639359 123.027849,51.8814416 123.027866,51.2354626 C123.027892,50.2664943 122.275141,49.4810103 121.34655,49.4810351 C120.417959,49.4810599 119.665166,50.2665841 119.66514,51.2355525 C119.665123,51.8815314 120.225353,60.2639958 121.345832,76.3829458 Z" id="Oval" fill="#FFD381" fill-rule="nonzero" transform="translate(121.346503, 62.931990) rotate(-43.000000) translate(-121.346503, -62.931990) "></path>
                <path d="M156.093493,27.062076 C157.214479,10.9427002 157.774974,2.56001511 157.774979,1.91402062 C157.774985,0.945028893 157.022236,0.159510766 156.093667,0.15951678 C155.165099,0.159522795 154.41234,0.945050674 154.412333,1.9140424 C154.412329,2.56003689 154.972716,10.9427148 156.093493,27.062076 Z" id="Oval" fill="#FFD381" fill-rule="nonzero" transform="translate(156.093656, 13.610796) rotate(-7.000000) translate(-156.093656, -13.610796) "></path>
                <g id="Wallet" transform="translate(117.616935, 79.370968)" fill-rule="nonzero">
                    <path d="M46.0952117,88.5225723 C82.3531231,88.5225723 111.745968,83.547142 111.745968,77.4096375 C111.745968,71.2721331 82.3531231,66.2967027 46.0952117,66.2967027 C9.83730032,66.2967027 0,71.2721331 0,77.4096375 C0,83.547142 9.83730032,88.5225723 46.0952117,88.5225723 Z" id="Oval" fill="#E2E6EF"></path>
                    <rect id="Rectangle" fill="#474C55" transform="translate(75.428528, 35.395697) scale(-1, 1) translate(-75.428528, -35.395697) " x="46.9333065" y="23.5971315" width="56.9904435" height="23.5971315" rx="6"></rect>
                    <path d="M52.9333065,25.0971315 C50.4480251,25.0971315 48.4333065,27.1118501 48.4333065,29.5971315 L48.4333065,41.194263 C48.4333065,43.6795443 50.4480251,45.694263 52.9333065,45.694263 L97.92375,45.694263 C100.409031,45.694263 102.42375,43.6795443 102.42375,41.194263 L102.42375,29.5971315 C102.42375,27.1118501 100.409031,25.0971315 97.92375,25.0971315 L52.9333065,25.0971315 Z M52.9333065,23.5971315 L97.92375,23.5971315 C101.237458,23.5971315 103.92375,26.283423 103.92375,29.5971315 L103.92375,41.194263 C103.92375,44.5079715 101.237458,47.194263 97.92375,47.194263 L52.9333065,47.194263 C49.619598,47.194263 46.9333065,44.5079715 46.9333065,41.194263 L46.9333065,29.5971315 C46.9333065,26.283423 49.619598,23.5971315 52.9333065,23.5971315 Z" id="Rectangle" fill="#000000" transform="translate(75.428528, 35.395697) scale(-1, 1) translate(-75.428528, -35.395697) "></path>
                    <path d="M6,0 L76.8967742,0 C83.8003336,4.86342917e-15 89.3967742,5.59644063 89.3967742,12.5 L89.3967742,40.4522254 L0,40.4522254 L-8.8817842e-16,6 C-1.29399067e-15,2.6862915 2.6862915,-2.79460044e-16 6,-8.8817842e-16 Z" id="Rectangle" fill="#474C55"></path>
                    <path d="M91.2793145,21.9310193 C91.2793145,21.7370916 91.272578,21.5425327 91.259209,21.3476309 C91.2075659,21.207057 91.1553178,21.0632611 91.1024822,20.9162661 L89.7403163,21.40588 C89.7375019,21.5853753 89.7340211,21.7604318 89.7298826,21.9310193 L91.2793145,21.9310193 Z M6.70475806,1.15798174 L75.9215575,1.04435484 C84.8612349,1.04435484 88.8380444,4.48848752 88.8380444,18.6290323 C88.8380444,28.0560621 91.259207,30.2214447 88.2793145,21.9310193 C88.2793145,19.8128001 85.766609,13.4840751 77.5270728,13.4840751 L7.43887437,13.4840751 C3.2316705,13.4840751 1.11745968,10.6009267 1.11745968,6.74203757 C1.11745968,3.99865075 3.21467714,1.15798174 6.70475806,1.15798174 Z" id="Rectangle" fill="#000000"></path>
                    <path d="M75.9264823,4.0443508 L7.15263049,4.1579777 C5.02856855,4.15798332 4.11745968,5.21531476 4.11745968,7.13633014 C4.11745968,9.17238654 5.38457715,10.4840751 7.15263049,10.4840751 L77.5270728,10.4840751 C83.0752048,10.4840751 87.3002417,13.0977955 89.5253063,16.4510868 C88.4487903,7.95080199 83.5411852,4.04435435 75.9264823,4.0443508 Z" id="Path" fill="#474C55"></path>
                    <path d="M88.7084393,10.073615 C86.2999672,5.32659716 81.8596489,3.04435388 75.9248407,3.04435214 L6.70804128,3.15797905 C4.60932091,3.15798174 3.11745968,4.79354611 3.11745968,6.74203757 C3.11745968,9.78614482 4.60554565,11.4840751 7.43887437,11.4840751 L77.5270728,11.4840751 C81.7998662,11.4840751 85.1633579,12.9952394 87.4812674,15.5771316 C89.3830645,16.6290323 89.3830645,12.6290323 88.7084393,10.073615 Z M6.38306452,0.629032258 L75.4624418,0.629032258 C84.4021192,0.629032258 88.8380444,3.48848752 88.8380444,17.6290323 C88.8380444,27.0560621 91.259207,30.2214447 88.2793145,21.9310193 C88.2793145,19.8128001 85.766609,13.4840751 77.5270728,13.4840751 L7.43887437,13.4840751 C3.2316705,13.4840751 0.383064516,10.4879214 0.383064516,6.62903226 C0.383064516,3.88564544 2.89298359,0.629032258 6.38306452,0.629032258 Z" id="Rectangle" fill="#89919E"></path>
                    <path d="M1,39.4522254 L88.3967742,39.4522254 L88.3967742,12.5 C88.3967742,6.14872538 83.2480488,1 76.8967742,1 L6,1 C3.23857625,1 1,3.23857625 1,6 L1,39.4522254 Z M6,0 L76.8967742,0 C83.8003336,4.86342917e-15 89.3967742,5.59644063 89.3967742,12.5 L89.3967742,40.4522254 L-8.8817842e-16,40.4522254 L-8.8817842e-16,6 C-1.29399067e-15,2.6862915 2.6862915,-2.79460044e-16 6,0 Z" id="Rectangle" fill="#000000"></path>
                    <path d="M0,13.4840751 L0,10.5946305 L0.957822581,6.74203757 L1.11745968,6.74203757 C1.11745968,10.4655621 3.61897837,13.4840751 6.70475806,13.4840751 L81.8666129,13.4840751 C88.4940299,13.4840751 93.8666129,18.8566581 93.8666129,25.4840751 L93.8666129,68.9044508 C93.8666129,75.5318678 88.4940299,80.9044508 81.8666129,80.9044508 L6,80.9044508 C2.6862915,80.9044508 -4.82366169e-16,78.2181593 -8.8817842e-16,74.9044508 L0,13.4840751 Z" id="Combined-Shape" fill="#646A74"></path>
                    <path d="M1,10.7170755 L1,74.9044508 C1,77.6658745 3.23857625,79.9044508 6,79.9044508 L81.8666129,79.9044508 C87.9417452,79.9044508 92.8666129,74.979583 92.8666129,68.9044508 L92.8666129,25.4840751 C92.8666129,19.4089429 87.9417452,14.4840751 81.8666129,14.4840751 L6.70475806,14.4840751 C4.25563587,14.4840751 2.15151734,12.9356809 1.01611932,10.6522397 L1,10.7170755 Z M0.957822581,6.74203757 L0.957822581,7.74203757 L1.11745968,7.74203757 L1.11745968,6.78172617 L0.957822581,6.74203757 Z M-8.8817842e-16,74.9044508 L0,10.5946305 L0.957822581,6.74203757 L1.11745968,6.74203757 C1.11745968,10.4655621 3.61897837,13.4840751 6.70475806,13.4840751 L81.8666129,13.4840751 C88.4940299,13.4840751 93.8666129,18.8566581 93.8666129,25.4840751 L93.8666129,68.9044508 C93.8666129,75.5318678 88.4940299,80.9044508 81.8666129,80.9044508 L6,80.9044508 C2.6862915,80.9044508 -4.82366169e-16,78.2181593 -8.8817842e-16,74.9044508 Z" id="Combined-Shape" fill="#000000"></path>
                    <path d="M6,20.5 L6,19.5 L10,19.5 L10,20.5 L6,20.5 Z M14,20.5 L14,19.5 L18,19.5 L18,20.5 L14,20.5 Z M22,20.5 L22,19.5 L26,19.5 L26,20.5 L22,20.5 Z M30,20.5 L30,19.5 L34,19.5 L34,20.5 L30,20.5 Z M38,20.5 L38,19.5 L42,19.5 L42,20.5 L38,20.5 Z M46,20.5 L46,19.5 L50,19.5 L50,20.5 L46,20.5 Z M54,20.5 L54,19.5 L58,19.5 L58,20.5 L54,20.5 Z M62,20.5 L62,19.5 L66,19.5 L66,20.5 L62,20.5 Z M70,20.5 L70,19.5 L74,19.5 L74,20.5 L70,20.5 Z M78,20.5 L78,19.5 L79,19.5 C80.085349,19.5 81.1432696,19.7037492 82.1315163,20.0955762 L81.7629426,21.0251747 C80.891533,20.6796721 79.958627,20.5 79,20.5 L78,20.5 Z M84.7904646,23.2330403 L85.5621203,22.5969999 C86.4754751,23.7050984 87.0965689,25.0270512 87.3588459,26.4495988 L86.3754209,26.6309142 C86.1441671,25.3766314 85.5964728,24.210904 84.7904646,23.2330403 Z M86.5,30.5126783 L87.5,30.5126783 L87.5,34.5126783 L86.5,34.5126783 L86.5,30.5126783 Z M86.5,38.5126783 L87.5,38.5126783 L87.5,42.5126783 L86.5,42.5126783 L86.5,38.5126783 Z M86.5,46.5126783 L87.5,46.5126783 L87.5,50.5126783 L86.5,50.5126783 L86.5,46.5126783 Z M86.5,54.5126783 L87.5,54.5126783 L87.5,58.5126783 L86.5,58.5126783 L86.5,54.5126783 Z M86.5,62.5126783 L87.5,62.5126783 L87.5,65 C87.5,65.5411829 87.4493605,66.0761539 87.3495567,66.5999563 L86.3672292,66.4127864 C86.4552923,65.9506028 86.5,65.4782968 86.5,65 L86.5,62.5126783 Z M84.7729695,69.7881065 L85.5423054,70.4269511 C84.6239709,71.5328659 83.4389241,72.3924001 82.0989109,72.9172732 L81.7341982,71.9861531 C82.9161694,71.5231839 83.9622096,70.7644734 84.7729695,69.7881065 Z M77.9746433,72.5 L77.9746433,73.5 L73.9746433,73.5 L73.9746433,72.5 L77.9746433,72.5 Z M69.9746433,72.5 L69.9746433,73.5 L65.9746433,73.5 L65.9746433,72.5 L69.9746433,72.5 Z M61.9746433,72.5 L61.9746433,73.5 L57.9746433,73.5 L57.9746433,72.5 L61.9746433,72.5 Z M53.9746433,72.5 L53.9746433,73.5 L49.9746433,73.5 L49.9746433,72.5 L53.9746433,72.5 Z M45.9746433,72.5 L45.9746433,73.5 L41.9746433,73.5 L41.9746433,72.5 L45.9746433,72.5 Z M37.9746433,72.5 L37.9746433,73.5 L33.9746433,73.5 L33.9746433,72.5 L37.9746433,72.5 Z M29.9746433,72.5 L29.9746433,73.5 L25.9746433,73.5 L25.9746433,72.5 L29.9746433,72.5 Z M21.9746433,72.5 L21.9746433,73.5 L17.9746433,73.5 L17.9746433,72.5 L21.9746433,72.5 Z M13.9746433,72.5 L13.9746433,73.5 L10,73.5 C9.98581605,73.4999854 9.98581605,73.4999854 9.97164441,73.4999123 L9.97782909,72.4999315 C9.98890845,72.4999886 9.98890845,72.4999886 10,72.5 L13.9746433,72.5 Z M7.02217756,70.8402288 L6.17207693,71.3668491 C5.75320481,70.6906817 5.51953851,69.9140869 5.5010458,69.0926405 L5.50000007,67.0978404 L6.49999993,67.0973162 L6.50091739,69.0810506 C6.51521188,69.7118337 6.69658944,70.3146458 7.02217756,70.8402288 Z M6.5,63.0975783 L5.5,63.0975783 L5.5,59.0975783 L6.5,59.0975783 L6.5,63.0975783 Z M6.5,55.0975783 L5.5,55.0975783 L5.5,51.0975783 L6.5,51.0975783 L6.5,55.0975783 Z M6.5,47.0975783 L5.5,47.0975783 L5.5,43.0975783 L6.5,43.0975783 L6.5,47.0975783 Z M6.5,39.0975783 L5.5,39.0975783 L5.5,35.0975783 L6.5,35.0975783 L6.5,39.0975783 Z M6.5,31.0975783 L5.5,31.0975783 L5.5,27.0975783 L6.5,27.0975783 L6.5,31.0975783 Z M6.5,23.0975783 L5.5,23.0975783 L5.5,20 L6.5,20 L6.5,23.0975783 Z" id="Rectangle-Copy" fill="#979797"></path>
                    <path d="M47.3830645,35.6855604 L47.3830645,30.6290323 L48.5803427,30.6290323 L49.059254,30.6290323 C49.059254,33.4216757 52.0610765,35.6855604 55.7640121,35.6855604 L93.8735081,35.6855604 C99.6724979,35.6855604 104.373508,40.3865706 104.373508,46.1855604 L104.373508,49.9063648 C104.373508,55.7053547 99.6724979,60.4063648 93.8735081,60.4063648 L57.8830645,60.4063648 C52.0840746,60.4063648 47.3830645,55.7053547 47.3830645,49.9063648 L47.3830645,35.6855604 Z" id="Combined-Shape" fill="#7A828E" transform="translate(75.878286, 45.517699) scale(-1, 1) translate(-75.878286, -45.517699) "></path>
                    <path d="M48.3830645,30.6290323 L48.0691683,30.9429285 C48.0839283,31.1758234 48.1150311,31.4047304 48.1615501,31.6290323 L48.3830645,31.6290323 L48.3830645,30.6290323 Z M48.3830645,49.9063648 C48.3830645,55.15307 52.6363594,59.4063648 57.8830645,59.4063648 L93.8735081,59.4063648 C99.1202132,59.4063648 103.373508,55.15307 103.373508,49.9063648 L103.373508,46.1855604 C103.373508,40.9388553 99.1202132,36.6855604 93.8735081,36.6855604 L55.7640121,36.6855604 C52.316786,36.6855604 49.3420474,34.909936 48.3830645,32.3870066 L48.3830645,49.9063648 Z M47.3830645,49.9063648 L47.3830645,30.6290323 L49.059254,30.6290323 C49.059254,33.4216757 52.0610765,35.6855604 55.7640121,35.6855604 L93.8735081,35.6855604 C99.6724979,35.6855604 104.373508,40.3865706 104.373508,46.1855604 L104.373508,49.9063648 C104.373508,55.7053547 99.6724979,60.4063648 93.8735081,60.4063648 L57.8830645,60.4063648 C52.0840746,60.4063648 47.3830645,55.7053547 47.3830645,49.9063648 Z" id="Combined-Shape" fill="#000000" transform="translate(75.878286, 45.517699) scale(-1, 1) translate(-75.878286, -45.517699) "></path>
                    <ellipse id="Oval" fill="#FFFFFF" cx="59.2253629" cy="47.7560994" rx="8.38094758" ry="8.42754696"></ellipse>
                    <path d="M59.2253629,55.1836464 C63.3005027,55.1836464 66.6063105,51.8594578 66.6063105,47.7560994 C66.6063105,43.6527411 63.3005027,40.3285525 59.2253629,40.3285525 C55.1502231,40.3285525 51.8444153,43.6527411 51.8444153,47.7560994 C51.8444153,51.8594578 55.1502231,55.1836464 59.2253629,55.1836464 Z M59.2253629,56.1836464 C54.5966934,56.1836464 50.8444153,52.4105051 50.8444153,47.7560994 C50.8444153,43.1016938 54.5966934,39.3285525 59.2253629,39.3285525 C63.8540324,39.3285525 67.6063105,43.1016938 67.6063105,47.7560994 C67.6063105,52.4105051 63.8540324,56.1836464 59.2253629,56.1836464 Z" id="Oval" fill="#000000"></path>
                    <path d="M58.0135866,48.602459 C57.0775756,48.1486508 56.4317137,47.1854644 56.4317137,46.07059 C56.4317137,44.5191215 57.6824731,43.2614077 59.2253629,43.2614077 C60.7682527,43.2614077 62.0190121,44.5191215 62.0190121,46.07059 C62.0190121,47.1854644 61.3731502,48.1486508 60.4371392,48.602459 L61.4602823,51.6889547 L56.9904435,51.6889547 L58.0135866,48.602459 Z" id="Keyhole" fill="#000000"></path>
                </g>
                <g id="Coin-1" transform="translate(120.750000, 24.020161)">
                    <circle id="Oval" fill="#FFFFFF" fill-rule="nonzero" cx="16.7096774" cy="16.7096774" r="16.7096774"></circle>
                    <path d="M16.7096774,32.4193548 C25.3858927,32.4193548 32.4193548,25.3858927 32.4193548,16.7096774 C32.4193548,8.03346216 25.3858927,1 16.7096774,1 C8.03346216,1 1,8.03346216 1,16.7096774 C1,25.3858927 8.03346216,32.4193548 16.7096774,32.4193548 Z M16.7096774,33.4193548 C7.48117741,33.4193548 0,25.9381774 0,16.7096774 C0,7.48117741 7.48117741,0 16.7096774,0 C25.9381774,0 33.4193548,7.48117741 33.4193548,16.7096774 C33.4193548,25.9381774 25.9381774,33.4193548 16.7096774,33.4193548 Z" id="Oval" fill="#000000" fill-rule="nonzero"></path>
                    <g id="Icons/Opera/Ethereum" transform="translate(16.676754, 16.690669) rotate(-15.000000) translate(-16.676754, -16.690669) translate(9.176754, 5.190669)" fill="#000000">
                        <path d="M7.45498909,0.472516325 C7.40489639,0.592405263 5.89118274,3.13416193 4.09118097,6.12088506 C2.2911792,9.10754642 0.803469281,11.5903778 0.785062839,11.6383086 C0.761159172,11.7006311 1.73904772,12.3089702 4.21397294,13.7713558 L7.67642229,15.8171886 L11.1378834,13.770244 C13.6246678,12.2996434 14.5898942,11.6985311 14.5657435,11.6355291 C14.4406661,11.3095251 7.70959095,0.254480287 7.63615048,0.254480287 C7.58661368,0.254480287 7.50508179,0.352565621 7.45498909,0.472516325 M0.793277795,13.1096504 C0.926693615,13.3377544 7.64782437,22.7943418 7.67592816,22.7934771 C7.72237663,22.7920565 14.5940325,13.0816084 14.5674729,13.054987 C14.5423957,13.0299715 8.11935046,16.8129277 7.85140702,17.010519 L7.68716968,17.131705 L4.36159507,15.1682689 C2.53250124,14.0884037 0.968447825,13.1612873 0.88592767,13.1081063 C0.749114688,13.0199653 0.740899732,13.0200889 0.793277795,13.1096504" id="path0"></path>
                    </g>
                </g>
                <g id="Coin-1" transform="translate(145.814516, 63.705645)" fill-rule="nonzero">
                    <path d="M3.34071171,27.1532258 C1.2430156,24.3168659 0,20.7912451 0,16.9707661 C0,7.5980708 7.48117741,0 16.7096774,0 C25.9381774,0 33.4193548,7.5980708 33.4193548,16.9707661 C33.4193548,20.7912451 32.1763392,24.3168659 30.0786431,27.1532258 L3.34071171,27.1532258 Z" id="Combined-Shape" fill="#5586FF"></path>
                    <path d="M29.5648324,26.1532258 C31.4104465,23.4886801 32.4193548,20.3087806 32.4193548,16.9707661 C32.4193548,8.14691488 25.3823925,1 16.7096774,1 C8.03696234,1 1,8.14691488 1,16.9707661 C1,20.3087806 2.00890836,23.4886801 3.85452244,26.1532258 L29.5648324,26.1532258 Z M0,16.9707661 C0,7.5980708 7.48117741,0 16.7096774,0 C25.9381774,0 33.4193548,7.5980708 33.4193548,16.9707661 C33.4193548,20.7912451 32.1763392,24.3168659 30.0786431,27.1532258 L3.34071171,27.1532258 C1.2430156,24.3168659 0,20.7912451 0,16.9707661 Z" id="Combined-Shape" fill="#000000"></path>
                    <path d="M17.2583534,24.890457 C18.7547424,24.890457 20.0017333,24.5527303 21.1655914,23.8772769 C22.3294495,23.2018235 23.2439095,22.2730751 23.8258385,21.0066001 C24.4909003,19.8245567 24.7402985,18.3892182 24.7402985,16.7850165 L24.7402985,16.0251314 C24.7402985,14.4209296 24.4077676,13.0700229 23.7427058,11.8035478 C23.077644,10.5370727 22.1631841,9.60832431 20.999326,8.93287093 C19.8354678,8.25741755 18.5053442,7.91969086 17.0920879,7.91969086 L12.1041245,7.91969086 L12.1041245,15.2652463 L10.0258065,15.2652463 L10.0258065,17.3760382 L12.1041245,17.3760382 L12.1041245,24.890457 L17.2583534,24.890457 Z M18.0065479,15.349678 L15.5125662,15.349678 L15.5125662,10.7903677 L17.1752207,10.7903677 C18.5053442,10.7903677 19.5860697,11.2125261 20.2511314,12.1412745 C20.9161932,12.9855912 21.3318568,14.336498 21.3318568,16.0251314 L21.3318568,16.7850165 C21.3318568,18.4736499 20.999326,19.740125 20.2511314,20.6688734 C19.5029369,21.5976218 18.5053442,22.0197801 17.1752207,22.0197801 L15.5125662,22.0197801 L15.5125662,17.3760382 L18.0065479,17.3760382 L18.0065479,15.349678 Z" id="Shape" fill="#FFFFFF" transform="translate(17.383052, 16.405074) rotate(10.000000) translate(-17.383052, -16.405074) "></path>
                </g>
                <g id="Coin-3" transform="translate(182.811206, 29.359961) rotate(10.000000) translate(-182.811206, -29.359961) translate(165.811206, 12.359961)" fill-rule="nonzero">
                    <path d="M16.8132126,32.6282258 C25.5465968,32.6282258 32.6264252,25.5480183 32.6264252,16.8141129 C32.6264252,8.08020753 25.5465968,1 16.8132126,1 C8.07982842,1 1,8.08020753 1,16.8141129 C1,25.5480183 8.07982842,32.6282258 16.8132126,32.6282258 Z M16.8132126,33.6282258 C7.52753168,33.6282258 1.84741111e-13,26.100291 1.84741111e-13,16.8141129 C1.84741111e-13,7.52793477 7.52753168,1.39266376e-12 16.8132126,1.39266376e-12 C26.0988935,1.39266376e-12 33.6264252,7.52793477 33.6264252,16.8141129 C33.6264252,26.100291 26.0988935,33.6282258 16.8132126,33.6282258 Z" id="Oval" fill="#000000"></path>
                    <ellipse id="Oval" fill="#FFA0EA" cx="16.8294984" cy="16.8711458" rx="15.799154" ry="15.8"></ellipse>
                    <path d="M24.7497542,31.4404589 C22.4605383,32.7461153 19.8108111,33.4920927 16.9868608,33.4920927 C14.1629105,33.4920927 11.5131832,32.7461153 9.22396731,31.4404589 C9.1691051,31.0124719 9.1406949,30.574663 9.1406949,30.1292701 C9.1406949,27.7481043 9.95271573,25.5837017 11.2775324,23.9780519 C9.28776777,22.64164 8.01981406,20.6208315 8.01981406,18.3593911 C8.01981406,17.0686394 8.43287918,15.856279 9.15745966,14.8048237 L8.78793319,8.64808909 L13.3863904,11.6844016 C14.4883828,11.2913935 15.7062732,11.0732755 16.9868608,11.0732755 C18.3125858,11.0732755 19.571116,11.3070407 20.7034242,11.7266091 L25.3658042,8.64808909 L24.9812267,15.05559 C25.6031986,16.0472641 25.9539075,17.1700489 25.9539075,18.3593911 C25.9539075,20.6208315 24.6859538,22.64164 22.6961891,23.9780519 C24.0210058,25.5837017 24.8330267,27.7481043 24.8330267,30.1292701 C24.8330267,30.574663 24.8046164,31.0124719 24.7497542,31.4404589 Z" id="Combined-Shape" fill="#FFF194"></path>
                    <path d="M10.1762964,15.0886823 L9.98087778,15.3722588 C9.35118334,16.2860228 9.01981406,17.3046612 9.01981406,18.3593911 C9.01981406,20.2096504 10.0503297,21.9491915 11.8350894,23.1479133 L12.75123,23.7632328 L12.048869,24.6144794 C10.8338032,26.0871134 10.1406949,28.0416412 10.1406949,30.1292701 C10.1406949,30.35972 10.1491032,30.5888534 10.1658078,30.8162745 C12.2496065,31.9108764 14.5749128,32.4920927 16.9868608,32.4920927 C19.3988087,32.4920927 21.724115,31.9108764 23.8079137,30.8162745 C23.8246184,30.5888534 23.8330267,30.35972 23.8330267,30.1292701 C23.8330267,28.0416412 23.1399183,26.0871134 21.9248525,24.6144794 L21.2224916,23.7632328 L22.1386321,23.1479133 C23.9233918,21.9491915 24.9539075,20.2096504 24.9539075,18.3593911 C24.9539075,17.3868897 24.6723821,16.4452198 24.1340648,15.5869248 L23.9638275,15.3154979 L24.2477732,10.5846378 L20.8313608,12.8404586 L20.3559678,12.6643053 C19.3108355,12.2770392 18.1680725,12.0732755 16.9868608,12.0732755 C15.8452035,12.0732755 14.7392809,12.2636057 13.7223017,12.6262952 L13.2520306,12.7940099 L9.90596418,10.5846378 L10.1762964,15.0886823 Z M23.4675257,23.3416245 L23.4586242,23.4026899 C23.2184255,23.6061404 22.9638374,23.7982878 22.6961891,23.9780519 C22.8972016,24.2216749 23.0864088,24.4781611 23.2627654,24.7463162 L23.2537461,24.8081906 C23.2652139,24.8004883 23.276659,24.7927666 23.2880813,24.7850256 C24.2587192,26.2775244 24.8330267,28.1267436 24.8330267,30.1292701 C24.8330267,30.574663 24.8046164,31.0124719 24.7497542,31.4404589 C22.4605383,32.7461153 19.8108111,33.4920927 16.9868608,33.4920927 C14.1629105,33.4920927 11.5131832,32.7461153 9.22396731,31.4404589 C9.1691051,31.0124719 9.1406949,30.574663 9.1406949,30.1292701 C9.1406949,28.1267436 9.71500233,26.2775244 10.6856403,24.7850256 C10.6970626,24.7927666 10.7085076,24.8004883 10.7199755,24.8081906 L10.7109561,24.7463162 C10.8873127,24.4781611 11.0765199,24.2216749 11.2775324,23.9780519 C11.0098842,23.7982878 10.755296,23.6061404 10.5150973,23.4026899 L10.5061959,23.3416245 C10.4975574,23.3520942 10.4889404,23.3625825 10.4803449,23.3730894 C8.95537253,22.0669116 8.01981406,20.3019264 8.01981406,18.3593911 C8.01981406,17.0686394 8.43287918,15.856279 9.15745966,14.8048237 L8.78793319,8.64808909 L13.3863904,11.6844016 C14.4883828,11.2913935 15.7062732,11.0732755 16.9868608,11.0732755 C18.3125858,11.0732755 19.571116,11.3070407 20.7034242,11.7266091 L25.3658042,8.64808909 L24.9812267,15.05559 C25.6031986,16.0472641 25.9539075,17.1700489 25.9539075,18.3593911 C25.9539075,20.3019264 25.018349,22.0669116 23.4933766,23.3730894 C23.4847812,23.3625825 23.4761642,23.3520942 23.4675257,23.3416245 Z" id="Combined-Shape" fill="#000000"></path>
                    <path d="M12.9904156,32.9786156 C12.6789692,32.2916728 12.5033374,31.5137823 12.5033374,30.6897405 C12.5033374,27.9038871 14.5106792,25.6455067 16.9868608,25.6455067 C19.4630424,25.6455067 21.4703841,27.9038871 21.4703841,30.6897405 C21.4703841,31.5137823 21.2947523,32.2916728 20.9833059,32.9786156 C19.7073555,33.3136697 18.3679435,33.4920927 16.9868608,33.4920927 C15.6057781,33.4920927 14.2663661,33.3136697 12.9904156,32.9786156 Z" id="Combined-Shape" fill="#FFFFFF"></path>
                    <path d="M16.9868608,32.4920927 C18.0933833,32.4920927 19.1830921,32.3699349 20.2422849,32.1303887 C20.3920429,31.6760769 20.4703841,31.1901524 20.4703841,30.6897405 C20.4703841,28.4316426 18.8827928,26.6455067 16.9868608,26.6455067 C15.0909288,26.6455067 13.5033374,28.4316426 13.5033374,30.6897405 C13.5033374,31.1901524 13.5816787,31.6760769 13.7314367,32.1303887 C14.7906294,32.3699349 15.8803383,32.4920927 16.9868608,32.4920927 Z M12.9904156,32.9786156 C12.6789692,32.2916728 12.5033374,31.5137823 12.5033374,30.6897405 C12.5033374,27.9038871 14.5106792,25.6455067 16.9868608,25.6455067 C19.4630424,25.6455067 21.4703841,27.9038871 21.4703841,30.6897405 C21.4703841,31.5137823 21.2947523,32.2916728 20.9833059,32.9786156 C19.7073555,33.3136697 18.3679435,33.4920927 16.9868608,33.4920927 C15.6057781,33.4920927 14.2663661,33.3136697 12.9904156,32.9786156 Z" id="Combined-Shape" fill="#000000"></path>
                    <path d="M25.7314918,29.8777056 C26.2027441,27.9764895 26.257225,25.6306196 25.8674726,22.8306936 C25.7151838,21.7366726 26.4786086,20.7263389 27.5726296,20.5740501 C28.6666506,20.4217613 29.6769842,21.1851861 29.829273,22.2792071 C29.9766297,23.3377965 30.069473,24.3538602 30.106936,25.3271011 C28.9703073,27.1234873 27.4790189,28.6731642 25.7314918,29.8777056 Z" id="Combined-Shape" fill="#000000"></path>
                    <path d="M26.9331893,28.9613223 C27.2122579,27.1642975 27.1896125,25.075634 26.8579227,22.6928219 C26.7817783,22.1458114 27.1634907,21.6406446 27.7105012,21.5645002 C28.2575117,21.4883558 28.7626785,21.8700682 28.8388229,22.4170787 C29.0517987,23.9470663 29.1467098,25.3788535 29.1220723,26.7119323 C28.4689627,27.5326375 27.7353529,28.2864165 26.9331893,28.9613223 Z" id="Combined-Shape" fill="#FFF194"></path>
                </g>
                <g id="Token-placeholder" transform="translate(85.528226, 142.556452) scale(-1, 1) translate(-85.528226, -142.556452) translate(55.528226, 119.056452)">
                    <ellipse id="Oval" fill="#E2E6EF" fill-rule="nonzero" cx="26.9561777" cy="37.3616047" rx="26.9561777" ry="9.38781438"></ellipse>
                    <path d="M11.2317407,8.9516129 L11.2317407,16.7842742 C14.2268716,19.7681452 17.2220024,21.2600806 20.2171333,21.2600806 C20.1169984,21.2600806 20.1169984,22.7520161 20.2171333,25.7358871 L14.6012629,29.0927419 L14.6012629,35.8064516 C17.6978434,39.5362903 23.6881051,41.4012097 32.5720481,41.4012097 C45.8979625,41.4012097 53.9123554,38.128347 53.9123554,35.8064516 C53.9123554,34.2585214 53.9123554,32.0206182 53.9123554,29.0927419 C56.9074863,28.1861071 58.4050517,26.3211877 58.4050517,23.4979839 C58.4050517,20.67478 58.4050517,18.0638929 58.4050517,15.6653226 L49.4196592,11.1895161 L49.4196592,7.83266129 L11.2317407,8.9516129 Z" id="Path-3" fill="#FFAD13" fill-rule="nonzero"></path>
                    <path d="M30.3256999,14.546371 C19.7803974,14.546371 11.2317407,11.5405408 11.2317407,7.83266129 C11.2317407,4.12478182 19.7803974,1.11895161 30.3256999,1.11895161 C40.8710024,1.11895161 49.4196592,4.12478182 49.4196592,7.83266129 C49.4196592,11.5405408 40.8710024,14.546371 30.3256999,14.546371 Z M40.9314902,23.4979839 C30.6607967,23.4979839 38.6130939,21.3170411 43.7491774,20.2265697 C48.8852609,19.1360983 49.338069,18.045627 49.9658529,16.9551556 C51.1758653,14.8533435 47.2910086,10.7108741 49.9658529,11.2349191 C55.6696965,12.3523937 59.5282258,14.4952402 59.5282258,16.9551556 C59.5282258,20.5686599 51.2021837,23.4979839 40.9314902,23.4979839 Z M34.2348549,33.5685484 C24.0118334,33.5685484 15.724437,30.6007206 15.724437,26.9397194 C15.724437,25.1727794 17.6549023,23.5673071 20.8017302,22.3790323 C20.211811,25.8349146 21.8945763,29.2153594 34.2348549,31.3589387 C43.1830775,32.9132979 52.350036,28.5056647 51.6257161,29.2153594 C49.0333009,31.7554296 42.2253383,33.5685484 34.2348549,33.5685484 Z" id="Combined-Shape" fill="#FFDC51" fill-rule="nonzero"></path>
                    <rect id="###############" fill="#FFFFFF" fill-rule="nonzero" x="25.8330037" y="13.4274194" width="7.8622185" height="7.83266129"></rect>
                    <rect id="Rectangle" fill="#FFFFFF" fill-rule="nonzero" x="37.0647444" y="23.4979839" width="7.8622185" height="7.83266129"></rect>
                    <rect id="Rectangle" fill="#FFFFFF" fill-rule="nonzero" x="30.3256999" y="33.5685484" width="7.8622185" height="7.83266129"></rect>
                    <path d="M54.655865,29.6391893 L54.655865,34.9390473 C54.655865,39.1251407 45.5407221,42.5201613 34.2963576,42.5201613 C23.051993,42.5201613 13.9368501,39.1251407 13.9368501,34.9390473 L13.9368501,27.0283196 C13.9368501,25.1495218 15.7737301,23.4355308 18.8092109,22.1101543 L18.8092109,21.7053887 C13.5505415,20.3345255 10.1085666,18.0628282 10.1085666,15.4918417 L10.1085666,7.58111403 C10.1085666,3.39502063 19.2237096,0 30.4680741,0 C41.7124387,0 50.8275816,3.39502063 50.8275816,7.58111403 L50.8275816,10.597079 C56.086251,11.9676125 59.5282258,14.2393098 59.5282258,16.8102963 L59.5282258,24.721024 C59.5282258,26.5998218 57.6913458,28.3138128 54.655865,29.6391893 Z M16.0250047,34.9390473 L16.0389257,34.9390473 C16.0333573,34.9937631 16.0250047,35.048479 16.0250047,35.1038541 C16.0250047,38.1076233 24.2053504,40.5424794 34.2963576,40.5424794 C44.3873647,40.5424794 52.5677104,38.1076233 52.5677104,35.1038541 C52.5677104,35.048479 52.5593578,34.9937631 52.5537894,34.9390473 L52.5677104,34.9390473 L52.5677104,30.4263067 C52.520727,30.4417986 52.4733954,30.4569608 52.4257159,30.472123 C49.0557824,32.928404 42.2080274,34.6094336 34.2963576,34.6094336 C26.2774958,34.6094336 19.3444745,32.8825877 16.0250047,30.3735685 L16.0250047,34.9390473 Z M16.0250047,27.1931264 C16.0250047,30.1968956 24.2053504,32.6317517 34.2963576,32.6317517 C36.4698509,32.6349908 38.6416336,32.5161211 40.8002631,32.2757689 C40.2615192,32.2915904 39.7185991,32.302138 39.1687183,32.302138 C27.9243538,32.302138 18.8092109,28.9071174 18.8092109,24.721024 L18.8092109,24.3083477 C17.0475044,25.1449072 16.0250047,26.1330889 16.0250047,27.1931264 Z M48.739427,7.74592086 C48.739427,4.74215163 40.5608214,2.30729557 30.4680741,2.30729557 C20.3753268,2.30729557 12.1967213,4.74215163 12.1967213,7.74592086 C12.1967213,10.7496901 20.377067,13.1845461 30.4680741,13.1845461 C40.5590813,13.1845461 48.739427,10.7496901 48.739427,7.74592086 Z M48.739427,15.4918417 L48.739427,10.926363 C45.4199572,13.4353821 38.4869359,15.1622281 30.4680741,15.1622281 C22.4492124,15.1622281 15.516191,13.4353821 12.1967213,10.926363 L12.1967213,15.4918417 L12.2106423,15.4918417 C12.2050739,15.5465576 12.1967213,15.6012734 12.1967213,15.6566485 C12.1967213,18.6604178 20.377067,21.0952738 30.4680741,21.0952738 C40.5590813,21.0952738 48.739427,18.6604178 48.739427,15.6566485 C48.739427,15.6012734 48.7310744,15.5465576 48.7255059,15.4918417 L48.739427,15.4918417 Z M57.4400712,16.9751032 C57.4400712,15.2907774 54.8667687,13.7854318 50.8275816,12.7890098 L50.8275816,15.4918417 C50.8275816,18.5747182 45.8824834,21.2271193 38.78589,22.4107619 C38.9132674,22.4107619 39.0396008,22.4137284 39.1687183,22.4137284 C49.2614656,22.4137284 57.4400712,19.9788724 57.4400712,16.9751032 Z M57.4400712,24.721024 L57.4400712,20.1555453 C54.1206014,22.6645644 47.1875801,24.3914104 39.1687183,24.3914104 C35.1887552,24.4243871 31.2220992,23.9516827 27.3748211,22.9859377 C25.1978915,22.8681766 23.0329674,22.5998148 20.8973655,22.1829989 L20.8973655,24.721024 L20.9112865,24.721024 C20.9057181,24.7757399 20.8973655,24.8304557 20.8973655,24.8858308 C20.8973655,27.8896001 29.0777112,30.3244561 39.1687183,30.3244561 C49.2597255,30.3244561 57.4400712,27.8896001 57.4400712,24.8858308 C57.4400712,24.8304557 57.4317186,24.7757399 57.4261502,24.721024 L57.4400712,24.721024 Z" id="Shape" fill="#955520"></path>
                </g>
                <g id="Plane" transform="translate(192.810484, 11.399194)" fill-rule="nonzero">
                    <g id="Icons/Opera/Send" transform="translate(101.613267, 18.870515) rotate(20.000000) translate(-101.613267, -18.870515) translate(88.113267, 8.370515)" fill="#5586FF">
                        <path d="M26.5116576,0.588379689 L1.02315841,9.85051148 C0.55025351,10.0234334 0.469644721,10.6610831 0.883436506,10.9420813 L4.69354528,13.5575257 L21.9868175,4.38725871 L7.34826141,15.37861 L7.34826141,19.8313501 C7.34826141,20.1339635 7.68681832,20.3176931 7.93939253,20.150175 L11.1637441,17.9994582 L14.3397304,20.177194 C14.629922,20.377135 15.0275921,20.290674 15.2156792,19.9880606 L26.7427361,0.874781664 C26.8394667,0.718071149 26.683623,0.523533959 26.5116576,0.588379689 Z" id="Shape"></path>
                    </g>
                    <path d="M87.5419224,41.1860639 L87.4771455,42.1839637 C85.930443,42.0835622 84.8501838,42.0133032 83.8239955,41.9462987 L83.8891513,40.9484236 C84.9151863,41.0154181 85.9953358,41.08567 87.5419224,41.1860639 Z M79.9008114,40.6858287 L79.8343701,41.6836191 C78.4757078,41.5931479 77.2755894,41.5118665 76.1802539,41.436001 L76.2493508,40.438391 C77.3437274,40.5141902 78.5429803,40.5954129 79.9008114,40.6858287 Z M72.2607804,40.1513702 L72.1855461,41.1485361 C70.8208618,41.0455732 69.6174441,40.9485622 68.5320062,40.8537255 L68.6190465,39.8575207 C69.7002581,39.9519882 70.8998114,40.0486876 72.2607804,40.1513702 Z M64.653723,39.4622429 L64.5386285,40.4555974 C63.183634,40.2986016 61.9958278,40.1322901 60.8877723,39.9446171 L61.0547655,38.958659 C62.1447135,39.1432651 63.315361,39.3071742 64.653723,39.4622429 Z M57.175377,38.1471387 L56.9347824,39.1177643 C55.9058666,38.862721 54.8160289,38.5661291 53.3848439,38.1558036 L53.6604439,37.1945312 C55.0809913,37.6018068 56.1599805,37.8954464 57.175377,38.1471387 Z M49.8209077,36.0765736 L49.540828,37.0365504 C48.569458,36.7531466 47.7338857,36.510974 46.874597,36.2643772 C46.5786623,36.1794508 46.289466,36.0876834 46.0066445,35.9890383 L46.3359764,35.0448241 C46.6010472,35.137278 46.8724069,35.2233854 47.1504403,35.3031746 C48.0113013,35.5502226 48.8482304,35.7927884 49.8209077,36.0765736 Z M42.9195461,33.2544923 L42.3187076,34.0538627 C41.2636051,33.2608058 40.3816758,32.3259565 39.6834091,31.2745589 L40.5164327,30.7213214 C41.1518416,31.6780724 41.9552494,32.5296886 42.9195461,33.2544923 Z M39.039993,27.1818063 L38.0616673,27.3888783 C37.7990882,26.1483053 37.737484,24.8591576 37.874321,23.576116 L38.8686819,23.682165 C38.7428775,24.8617601 38.7994334,26.0452661 39.039993,27.1818063 Z M39.9090992,19.9572232 L39.0039638,19.5320999 C39.5546001,18.3597331 40.2794323,17.2904491 41.1514896,16.3733574 L41.8761653,17.0624475 C41.0789711,17.90081 40.4146829,18.8807786 39.9090992,19.9572232 Z M44.9514223,14.8663199 L44.5395454,13.9550804 C45.6905616,13.4348253 46.9384094,13.1186747 48.2597894,13.0229592 L48.3320361,14.020346 C47.1279609,14.1075644 45.9950955,14.3945835 44.9514223,14.8663199 Z M52.1656819,14.3762983 L52.4025703,13.4047614 C53.6829986,13.7169664 54.870883,14.181671 55.9393749,14.7861179 L55.4469987,15.6565004 C54.459841,15.0980644 53.357995,14.6670182 52.1656819,14.3762983 Z M58.3872694,18.1045556 L59.1616212,17.4718004 C59.9848564,18.4792573 60.6040969,19.618139 60.9965968,20.853939 L60.0435132,21.156646 C59.6894006,20.04171 59.1309905,19.014705 58.3872694,18.1045556 Z M60.4622122,24.9379905 L61.4594081,25.0128261 C61.3686411,26.2223113 61.0940914,27.4639691 60.6351678,28.7199069 L59.6959085,28.3766986 C60.1238282,27.2056092 60.3784568,26.0540451 60.4622122,24.9379905 Z M57.9425289,31.8517471 L58.7834302,32.3929357 C58.1417031,33.3900539 57.3882601,34.3827789 56.52422,35.3658521 L55.7731033,34.7056826 C56.604884,33.7593129 57.3282468,32.8062213 57.9425289,31.8517471 Z M52.9557038,37.5170072 L53.6185745,38.2657412 C52.7294346,39.0529164 51.7680083,39.8288546 50.7348732,40.5916227 L50.140912,39.787129 C51.150596,39.041675 52.0890251,38.284297 52.9557038,37.5170072 Z M46.8787367,41.9980602 L47.4082487,42.8463626 C46.397062,43.4775474 45.3343791,44.0969153 44.2204797,44.7035672 L43.7421925,43.8253637 C44.8389147,43.2280669 45.884517,42.6186542 46.8787367,41.9980602 Z M40.1695802,45.6415361 L40.5986681,46.5447989 C39.5180732,47.058127 38.3982566,47.5603713 37.2393577,48.0510424 L36.8494699,47.13018 C37.9952938,46.6450448 39.1020426,46.1486615 40.1695802,45.6415361 Z M33.1400208,48.6055545 L33.4829861,49.5449026 C32.4918242,49.9067857 31.3202229,50.3020675 29.9953507,50.7227711 L29.6927002,49.7696695 C31.0049092,49.352987 32.163401,48.9621281 33.1400208,48.6055545 Z M25.8770052,50.9276713 L26.1569582,51.887685 C25.0258641,52.2175273 23.8422448,52.5524385 22.6272295,52.886637 L22.3620219,51.9224457 C23.5722143,51.5895737 24.7509273,51.2560508 25.8770052,50.9276713 Z M18.502332,52.9537344 L18.7535356,53.9216687 C17.5533173,54.2331559 16.3602531,54.5343129 15.1980354,54.8191664 L14.9599863,53.8479133 C16.117773,53.5641458 17.3064536,53.2640953 18.502332,52.9537344 Z M11.0772172,54.7638324 L11.2972997,55.7393136 C9.9792555,56.0366832 8.77020097,56.2938272 7.70364113,56.5031723 L7.51103557,55.5218961 C8.56779299,55.314475 9.76782736,55.0592494 11.0772172,54.7638324 Z" id="Plane-line" fill="#A2BDFF" transform="translate(47.526479, 34.763066) rotate(-20.000000) translate(-47.526479, -34.763066) "></path>
                </g>
                <ellipse id="Oval" fill="#E2E6EF" fill-rule="nonzero" cx="253.383065" cy="156.653226" rx="31.3306452" ry="9.39919355"></ellipse>
                <g id="Cubes" transform="translate(222.141129, 118.189516)" fill-rule="nonzero">
                    <g id="Cube-left" transform="translate(0.000000, 19.614736)">
                        <polygon id="Path-16" fill="#AFFF58" points="2 2.99376833 13.172168 1 24.3443361 3.99065249 22.3130328 5.98442082 6.06260656 7.97818915"></polygon>
                        <path d="M2,2.99376833 L6.06260656,7.97818915 L22.3130328,5.98442082 L24.3443361,3.99065249 L13.172168,1 L2,2.99376833 Z M1.8243171,2.00932152 L12.9964851,0.0155531914 C13.140843,-0.0102086994 13.2891002,-0.00390723866 13.4307514,0.0340110641 L24.6029195,3.02466356 C25.350652,3.2248224 25.597241,4.16210746 25.0448184,4.70432222 L23.0135152,6.69809055 C22.8565355,6.85216946 22.653134,6.95019206 22.4348099,6.9769783 L6.18438365,8.97074662 C5.84328118,9.01259656 5.50458523,8.87636202 5.287465,8.60997674 L1.22485844,3.62555592 C0.743085814,3.03446804 1.07362252,2.14328935 1.8243171,2.00932152 Z" id="Path-16" fill="#29390C"></path>
                        <polygon id="Path-14" fill="#659E26" points="24.3443361 18.943915 12.1565164 20.9376833 12.1565164 5.98442082 24.3443361 3.99065249"></polygon>
                        <path d="M24.3443361,18.943915 L24.3443361,3.99065249 L12.1565164,5.98442082 L12.1565164,20.9376833 L24.3443361,18.943915 Z M24.5057772,19.9307973 L12.3179575,21.9245656 C11.7093216,22.0241305 11.1565164,21.5544092 11.1565164,20.9376833 L11.1565164,5.98442082 C11.1565164,5.49444771 11.5115295,5.07664026 11.9950753,4.99753847 L24.182895,3.00377014 C24.7915309,2.90420525 25.3443361,3.3739266 25.3443361,3.99065249 L25.3443361,18.943915 C25.3443361,19.4338881 24.989323,19.8516955 24.5057772,19.9307973 Z" id="Path-14" fill="#29390C"></path>
                        <polygon id="Path-5" fill="#4F7F1A" points="14.858871 5.56054713 24.4113558 12.5828446 24.4113558 3.9891629"></polygon>
                        <polygon id="Path-15" fill="#8ED93C" points="12.1565164 20.9376833 2 17.9470308 2 2.99376833 12.1565164 5.98442082"></polygon>
                        <path d="M12.1565164,20.9376833 L12.1565164,5.98442082 L2,2.99376833 L2,17.9470308 L12.1565164,20.9376833 Z M11.8740509,21.8969607 L1.7175345,18.9063082 C1.29210157,18.7810367 1,18.3905239 1,17.9470308 L1,2.99376833 C1,2.32603082 1.64191996,1.84587806 2.2824655,2.03449087 L12.4389819,5.02514336 C12.8644148,5.15041486 13.1565164,5.54092773 13.1565164,5.98442082 L13.1565164,20.9376833 C13.1565164,21.6054208 12.5145964,22.0855736 11.8740509,21.8969607 Z" id="Path-15" fill="#29390C"></path>
                    </g>
                    <g id="Cube-right" transform="translate(26.695986, 18.507087)">
                        <polygon id="Path-11" fill="#AFFF58" points="23.3443361 3.00431737 10.1408648 1 1 4.00647605 6.0782582 8.01511079 17.2504262 8.01511079"></polygon>
                        <path d="M23.3443361,3.00431737 L10.1408648,1 L1,4.00647605 L6.0782582,8.01511079 L17.2504262,8.01511079 L23.3443361,3.00431737 Z M23.494419,2.01564395 C24.3499903,2.14552166 24.6478831,3.22710843 23.97946,3.7767276 L17.8855502,8.78752102 C17.7065982,8.93466652 17.4821062,9.01511079 17.2504262,9.01511079 L6.0782582,9.01511079 C5.85342046,9.01511079 5.63514309,8.93934074 5.45866309,8.80003237 L0.380404891,4.79139764 C-0.245373782,4.29742549 -0.0697770486,3.30563049 0.687560736,3.05653831 L9.8284255,0.0500622619 C9.97742793,0.00105461901 10.1358694,-0.0122146605 10.2909477,0.0113265845 L23.494419,2.01564395 Z" id="Path-11" fill="#29390C"></path>
                        <polygon id="Path-4" fill="#7BB639" points="13.1628845 5.30339687 5.16288447 4.30339687 5.16288447 3.30339687 9.16288447 0.303396872"></polygon>
                        <polygon id="Path-8" fill="#659E26" points="13.1878197 6.01079342 23.3443361 3.00431737 23.3443361 19.0388563 13.1878197 22.0453324"></polygon>
                        <path d="M13.1878197,6.01079342 L13.1878197,22.0453324 L23.3443361,19.0388563 L23.3443361,3.00431737 L13.1878197,6.01079342 Z M12.9039798,5.05192174 L23.0604962,2.04544569 C23.7013438,1.8557455 24.3443361,2.33598226 24.3443361,3.00431737 L24.3443361,19.0388563 C24.3443361,19.4818189 24.0529203,19.8719975 23.628176,19.997728 L13.4716596,23.004204 C12.830812,23.1939042 12.1878197,22.7136675 12.1878197,22.0453324 L12.1878197,6.01079342 C12.1878197,5.5678308 12.4792355,5.17765221 12.9039798,5.05192174 Z" id="Path-8" fill="#29390C"></path>
                        <polygon id="Path-9" fill="#8ED93C" points="13.1878197 22.0453324 1 19.0388563 1 4.00647605 13.1878197 6.01079342"></polygon>
                        <path d="M13.1878197,22.0453324 L13.1878197,6.01079342 L1,4.00647605 L1,19.0388563 L13.1878197,22.0453324 Z M12.9483202,23.0162288 L0.760500475,20.0097528 C0.313854854,19.8995748 0,19.4988905 0,19.0388563 L0,4.00647605 C0,3.38940906 0.55338449,2.91959691 1.16227283,3.01973012 L13.3500925,5.02404749 C13.8332568,5.10350507 14.1878197,5.52113918 14.1878197,6.01079342 L14.1878197,22.0453324 C14.1878197,22.694613 13.5787044,23.1717312 12.9483202,23.0162288 Z" id="Path-9" fill="#29390C"></path>
                    </g>
                    <polygon id="Path-17" fill="#659E26" points="27.6959865 34.1814516 35.858871 39.0452568 39.9853713 24.4915078 27.6959865 22.2762097"></polygon>
                    <g id="Cube-top" transform="translate(13.406602, 0.000000)">
                        <polygon id="Path-13" fill="#AFFF58" points="1.45226932 4.81048387 8.08384826 1.81048387 22.4522693 2.81048387 21.3470062 6.81048387 2.55753248 6.81048387"></polygon>
                        <path d="M1.45226932,4.81048387 L2.55753248,6.81048387 L21.3470062,6.81048387 L22.4522693,2.81048387 L8.08384826,1.81048387 L1.45226932,4.81048387 Z M1.04010145,3.89937595 L7.67168039,0.899375948 C7.82257476,0.831114212 7.9880607,0.801398386 8.15327739,0.812896984 L22.5216984,1.81289698 C23.1523248,1.85678673 23.5845141,2.46750047 23.4161497,3.07681925 L22.3108866,7.07681925 C22.1911124,7.51028767 21.796718,7.81048387 21.3470062,7.81048387 L2.55753248,7.81048387 C2.19356419,7.81048387 1.85833734,7.61273014 1.68229094,7.29416998 L0.577027782,5.29416998 C0.294650132,4.7832009 0.508193443,4.140001 1.04010145,3.89937595 Z" id="Path-13" fill="#29390C"></path>
                        <polygon id="------------------------" fill="#8ED93C" points="1.45226932 4.81048387 1.45226932 21.6854839 16.4522693 22.8104839 16.4522693 5.93548387"></polygon>
                        <path d="M1.45226932,4.81048387 L1.45226932,21.6854839 L16.4522693,22.8104839 L16.4522693,5.93548387 L1.45226932,4.81048387 Z M0.452269317,4.81048387 C0.452269317,4.22873267 0.946937368,3.76977542 1.52705927,3.81328456 L16.5270593,4.93828456 C17.0488654,4.97742002 17.4522693,5.41221219 17.4522693,5.93548387 L17.4522693,22.8104839 C17.4522693,23.3922351 16.9576013,23.8511923 16.3774794,23.8076832 L1.37747937,22.6826832 C0.855673208,22.6435477 0.452269317,22.2087556 0.452269317,21.6854839 L0.452269317,4.81048387 Z" id="------------------------" fill="#29390C"></path>
                        <polygon id="Path-12" fill="#659E26" points="16.4522693 6.1438172 16.4522693 22.8104839 22.4522693 18.8104839 22.4522693 2.81048387"></polygon>
                        <path d="M16.4522693,6.1438172 L16.4522693,22.8104839 L22.4522693,18.8104839 L22.4522693,2.81048387 L16.4522693,6.1438172 Z M15.4522693,6.1438172 C15.4522693,5.78065008 15.6491612,5.44602948 15.9666264,5.26965993 L21.9666264,1.93632659 C22.6331576,1.56603149 23.4522693,2.04799958 23.4522693,2.81048387 L23.4522693,18.8104839 C23.4522693,19.1448371 23.2851682,19.4570684 23.0069695,19.6425342 L17.0069695,23.6425342 C16.3424148,24.0855707 15.4522693,23.6091793 15.4522693,22.8104839 L15.4522693,6.1438172 Z" id="Path-12" fill="#29390C"></path>
                    </g>
                </g>
                <rect id="Rectangle" fill-opacity="0" fill="#FFFFFF" fill-rule="nonzero" x="0" y="0" width="360" height="169"></rect>
            </g>
        </g>
</svg>